<svg width="77" height="106" viewBox="0 0 77 106" fill="none" xmlns="http://www.w3.org/2000/svg">
<path d="M20.6002 51.8342V57.0176H41.2003V51.8342H20.6002ZM36.0503 31.1009H18.0252C17.3423 31.1009 16.6872 31.3741 16.2043 31.8602C15.7214 32.3462 15.4502 33.0052 15.4502 33.6926C15.4502 34.38 15.7214 35.039 16.2043 35.5251C16.6872 36.0111 17.3423 36.2844 18.0252 36.2844H20.6002V46.6513H41.2003V36.2844H43.7753C44.4582 36.2844 45.1131 36.0111 45.596 35.5251C46.0789 35.039 46.3503 34.38 46.3503 33.6926C46.3503 33.0052 46.0789 32.3462 45.596 31.8602C45.1131 31.3741 44.4582 31.1009 43.7753 31.1009H36.0503Z" fill="white"/>
<path d="M41.2002 46.6513H20.6001V51.8348H41.2002V46.6513Z" fill="#F1F1F1"/>
<path d="M18.025 31.1009H36.0501V15.5504H0V62.2011H25.7501V57.0176H20.6001V36.2844H18.025C17.3421 36.2844 16.687 36.0111 16.2041 35.5251C15.7212 35.039 15.45 34.38 15.45 33.6926C15.45 33.0052 15.7212 32.3462 16.2041 31.8602C16.687 31.3741 17.3421 31.1009 18.025 31.1009Z" fill="#2D2B28"/>
<path d="M40.1685 54.1694C39.8092 53.8148 39.3544 53.5747 38.8604 53.4778C38.3665 53.3809 37.8552 53.4318 37.3898 53.6246C36.9245 53.8174 36.5254 54.1436 36.2424 54.5623C35.9593 54.9811 35.8045 55.4739 35.7973 55.9803L35.7949 71.5074C35.8048 72.1871 36.0801 72.8354 36.5611 73.3126C37.0421 73.7898 37.6905 74.0572 38.3658 74.0573C39.0412 74.0574 39.6894 73.7902 40.1706 73.3132C40.6518 72.8362 40.9273 72.1877 40.9374 71.508L40.9398 55.9816C40.9409 55.6426 40.8731 55.3067 40.7405 54.9951C40.6079 54.6836 40.4131 54.4024 40.1685 54.1694Z" fill="white"/>
<path d="M46.0925 106V100.817H35.7925V106H46.0925Z" fill="#2D2B28"/>
<path d="M40.17 70.4945C39.8101 70.1393 39.3545 69.8986 38.8597 69.8016C38.365 69.7046 37.8529 69.7552 37.3868 69.9484C36.9207 70.1416 36.5213 70.4685 36.2379 70.888C35.9545 71.3076 35.7996 71.8013 35.7925 72.3086V100.816H40.9425V72.3086C40.9436 71.9691 40.8756 71.6335 40.7427 71.3215C40.6099 71.0094 40.415 70.7278 40.17 70.4945Z" fill="white"/>
<path d="M25.7229 54.4022C25.3582 54.0527 24.8997 53.8186 24.4041 53.7289C23.9085 53.6393 23.3975 53.6981 22.9347 53.8979C22.472 54.0976 22.0777 54.4295 21.8006 54.8527C21.5236 55.2759 21.3758 55.7715 21.376 56.2783L21.6004 71.8129C21.6195 72.4933 21.904 73.139 22.3924 73.6099C22.8807 74.0808 23.5336 74.3386 24.2098 74.3287C24.886 74.3188 25.5311 74.0417 26.0056 73.5567C26.4801 73.0718 26.7458 72.4183 26.7452 71.7376L26.5208 56.203C26.517 55.8638 26.4443 55.5288 26.3071 55.2191C26.1698 54.9093 25.971 54.6317 25.7229 54.4022Z" fill="white"/>
<path d="M31.9911 105.415L31.9799 100.239L26.8376 100.251L21.6953 100.262L21.7065 105.438L31.9911 105.415Z" fill="#2D2B28"/>
<path d="M26.0011 69.9749C25.6409 69.6211 25.1855 69.3816 24.6913 69.2858C24.1971 69.19 23.6859 69.2425 23.221 69.4364C22.7561 69.6303 22.3579 69.9572 22.0757 70.3767C21.7936 70.7961 21.6399 71.2894 21.6338 71.7959L21.6952 100.262L26.8376 100.251L26.7763 71.7845C26.7766 71.4456 26.7079 71.1106 26.5746 70.7993C26.4413 70.4881 26.2462 70.2073 26.0011 69.9749Z" fill="white"/>
<path d="M46.3501 20.7339V5.18348H25.75V20.7339H46.3501Z" fill="#2D2B28"/>
<path d="M46.3502 25.9174V20.7339H25.7501V5.18348H46.3502V0H20.6001V25.9174H25.7501V31.1009C25.7693 32.4629 26.3202 33.7626 27.2839 34.7189C28.2476 35.6753 29.5467 36.2116 30.9001 36.2116C32.2535 36.2116 33.5525 35.6753 34.5162 34.7189C35.4799 33.7626 36.031 32.4629 36.0501 31.1009V25.9174H46.3502Z" fill="white"/>
<path d="M18.4925 31.8377C18.1246 31.4922 17.6641 31.2629 17.1681 31.1783C16.672 31.0938 16.1621 31.1576 15.7017 31.3618C15.2413 31.5661 14.8505 31.9018 14.5778 32.3274C14.3051 32.753 14.1625 33.2498 14.1676 33.7562L14.4824 46.6896C14.511 47.3672 14.8028 48.0062 15.295 48.4695C15.7872 48.9328 16.4403 49.1834 17.114 49.1668C17.7877 49.1502 18.428 48.8679 18.8971 48.3809C19.3661 47.8939 19.6265 47.2406 19.6221 46.5624L19.3074 33.6296C19.3003 33.2908 19.2242 32.957 19.0841 32.6489C18.9439 32.3407 18.7426 32.0645 18.4925 31.8377Z" fill="white"/>
<path d="M19.2602 68.9658L19.3373 63.7855L14.1904 63.7077L14.1133 68.888L19.2602 68.9658Z" fill="#CCCCCC"/>
<path d="M18.8243 46.4201C18.4699 46.0599 18.0181 45.812 17.5252 45.7076C17.0323 45.6033 16.5197 45.647 16.0511 45.8329C15.5825 46.0189 15.1784 46.3387 14.8889 46.7536C14.5994 47.1685 14.4372 47.6597 14.4224 48.1665L14.1909 63.7075L19.3378 63.7853L19.5693 48.2443C19.5754 47.9051 19.5124 47.5685 19.3843 47.2547C19.2562 46.9409 19.0657 46.657 18.8243 46.4201Z" fill="white"/>
<path d="M42.11 31.8046C41.6929 32.0891 41.3678 32.4907 41.1753 32.9593C40.9828 33.428 40.9312 33.9433 41.0268 34.4412C41.1224 34.9392 41.361 35.3978 41.7131 35.7605C42.0653 36.1232 42.5155 36.3741 43.0078 36.4818L55.6242 39.0521C56.2892 39.178 56.9768 39.0357 57.5382 38.6553C58.0995 38.2749 58.4894 37.6872 58.6237 37.0197C58.758 36.3521 58.6258 35.6581 58.2556 35.0879C57.8855 34.5177 57.3071 34.1173 56.6458 33.973L44.0294 31.4028C43.6991 31.3344 43.3584 31.3342 43.0283 31.4034C42.6982 31.4725 42.3857 31.6092 42.11 31.8046Z" fill="white"/>
<path d="M73.2262 23.363L68.8716 26.125L71.616 30.508L75.9705 27.7454L73.2262 23.363Z" fill="#CCCCCC"/>
<path d="M54.6954 36.0357C54.5889 36.5313 54.6292 37.0475 54.8113 37.5202C54.9935 37.9928 55.3095 38.4015 55.7201 38.6952C56.1307 38.9888 56.6178 39.1546 57.1212 39.1723C57.6246 39.1899 58.1221 39.0587 58.5521 38.7945L71.6155 30.508L68.8711 26.125L55.8078 34.4115C55.522 34.5914 55.2758 34.8288 55.0845 35.1081C54.8932 35.3875 54.7608 35.7029 54.6954 36.0357Z" fill="white"/>
</svg>
