<svg width="344" height="148" viewBox="0 0 344 148" fill="none" xmlns="http://www.w3.org/2000/svg">
<path d="M88 34.903C76.4 34.903 66.5 39.003 58.3 47.203C50.1 55.403 46 65.303 46 76.903C46 81.903 46.7667 86.603 48.3 91.003C43.9667 88.9696 39.2 87.953 34 87.953C24.6 87.953 16.5833 91.2696 9.95 97.903C3.31666 104.536 0 112.553 0 121.953C0 131.353 3.31666 139.37 9.95 146.003C10.45 146.503 10.9667 146.986 11.5 147.453H327.35C328.85 146.286 330.3 145.003 331.7 143.603C339.9 135.403 344 125.503 344 113.903C344 102.303 339.9 92.403 331.7 84.203C323.5 76.003 313.6 71.903 302 71.903C292.467 71.903 284.1 74.6696 276.9 80.203C276.967 79.1363 277 78.053 277 76.953C277 67.553 273.683 59.5363 267.05 52.903C260.417 46.2696 252.4 42.953 243 42.953C236.533 42.953 230.733 44.5196 225.6 47.653C224 35.853 218.8 25.5363 210 16.703C199.233 5.96964 186.233 0.602966 171 0.602966C155.767 0.602966 142.767 5.96964 132 16.703C123.567 25.1696 118.45 35.003 116.65 46.203C108.65 38.6696 99.1 34.903 88 34.903Z" fill="white"/>
</svg>
