<svg width="294" height="463" viewBox="0 0 294 463" fill="none" xmlns="http://www.w3.org/2000/svg">
<path d="M0.255859 334.472L72.5629 261.102L90.108 344.574C90.108 344.574 71.4996 356.802 59.8028 393.487C48.1061 430.173 49.7012 462.604 49.7012 462.604H36.4092C36.4092 462.604 31.0922 452.503 16.2055 407.311C1.31874 362.119 0.255859 334.472 0.255859 334.472Z" fill="#F3601F"/>
<path d="M98.0825 355.739H200.695L196.441 376.474H101.273L98.0825 355.739Z" fill="url(#paint0_linear)"/>
<path d="M293.737 334.472L221.43 261.102L203.885 344.574C203.885 344.574 222.493 356.802 234.19 393.487C245.887 430.173 244.292 462.604 244.292 462.604H257.584C257.584 462.604 262.901 452.503 277.787 407.311C292.674 362.119 293.737 334.472 293.737 334.472Z" fill="#F3601F"/>
<path d="M142.167 0.583881L148.587 0.583862V364.246H95.0921C95.0921 364.246 56.8176 318.047 68.3476 180.288C79.8776 42.5292 142.167 0.583881 142.167 0.583881Z" fill="white"/>
<path d="M155.007 0.583881L148.587 0.583862V364.246H202.083C202.083 364.246 240.357 318.047 228.827 180.288C217.297 42.5292 155.007 0.583881 155.007 0.583881Z" fill="white"/>
<mask id="mask0" mask-type="alpha" maskUnits="userSpaceOnUse" x="66" y="0" width="83" height="365">
<path d="M142.167 0.583881L148.587 0.583862V364.246H95.0921C95.0921 364.246 56.8176 318.047 68.3476 180.288C79.8776 42.5292 142.167 0.583881 142.167 0.583881Z" fill="white"/>
</mask>
<g mask="url(#mask0)">
<rect x="32.1555" y="-18.5562" width="221.706" height="114.309" fill="#F3601F"/>
</g>
<mask id="mask1" mask-type="alpha" maskUnits="userSpaceOnUse" x="148" y="0" width="83" height="365">
<path d="M155.007 0.583881L148.587 0.583862V364.246H202.083C202.083 364.246 240.357 318.047 228.827 180.288C217.297 42.5292 155.007 0.583881 155.007 0.583881Z" fill="white"/>
</mask>
<g mask="url(#mask1)">
<rect width="221.706" height="114.309" transform="matrix(-1 0 0 1 265.019 -18.5562)" fill="#F3601F"/>
</g>
<circle cx="149.389" cy="183.282" r="63.6093" fill="#8D8B89"/>
<circle cx="149.389" cy="183.282" r="51.306" fill="#113450"/>
<path d="M134.777 269.077H161.883L157.482 462.604H139.552L134.777 269.077Z" fill="#F3601F"/>
<defs>
<linearGradient id="paint0_linear" x1="101.273" y1="355.739" x2="196.442" y2="355.739" gradientUnits="userSpaceOnUse">
<stop stop-color="#938B88"/>
<stop offset="1" stop-color="#5C574A"/>
</linearGradient>
</defs>
</svg>
