<svg width="294" height="463" viewBox="0 0 294 463" fill="none" xmlns="http://www.w3.org/2000/svg">
<path d="M0 334.868L72.307 261.497L89.8521 344.969C89.8521 344.969 71.2437 357.198 59.547 393.883C47.8503 430.568 49.4453 463 49.4453 463H36.1534C36.1534 463 30.8364 452.898 15.9496 407.706C1.06289 362.515 0 334.868 0 334.868Z" fill="#F3601F"/>
<path d="M96.8267 356.134H199.439L195.186 376.87H100.017L96.8267 356.134Z" fill="url(#paint0_linear)"/>
<path d="M293.481 334.868L221.174 261.497L203.629 344.969C203.629 344.969 222.238 357.198 233.934 393.883C245.631 430.568 244.036 463 244.036 463H257.328C257.328 463 262.645 452.898 277.532 407.706C292.418 362.515 293.481 334.868 293.481 334.868Z" fill="#F3601F"/>
<path d="M140.912 0.979419L147.332 0.979401V364.641H93.8363C93.8363 364.641 55.5617 318.443 67.0917 180.684C78.6217 42.9247 140.912 0.979419 140.912 0.979419Z" fill="white"/>
<path d="M152.752 0.979419L146.331 0.979401V364.641H199.827C199.827 364.641 238.101 318.443 226.571 180.684C215.041 42.9247 152.752 0.979419 152.752 0.979419Z" fill="white"/>
<mask id="mask0" mask-type="alpha" maskUnits="userSpaceOnUse" x="64" y="0" width="84" height="365">
<path d="M140.912 0.979419L147.332 0.979401V364.641H93.8363C93.8363 364.641 55.5617 318.443 67.0917 180.684C78.6217 42.9247 140.912 0.979419 140.912 0.979419Z" fill="white"/>
</mask>
<g mask="url(#mask0)">
<rect x="30.8997" y="-18.1607" width="221.706" height="114.309" fill="#F3601F"/>
</g>
<mask id="mask1" mask-type="alpha" maskUnits="userSpaceOnUse" x="146" y="0" width="83" height="365">
<path d="M152.752 0.979419L146.331 0.979401V364.641H199.827C199.827 364.641 238.101 318.443 226.571 180.684C215.041 42.9247 152.752 0.979419 152.752 0.979419Z" fill="white"/>
</mask>
<g mask="url(#mask1)">
<rect width="221.706" height="114.309" transform="matrix(-1 0 0 1 262.763 -18.1607)" fill="#F3601F"/>
</g>
<circle cx="146.741" cy="183.678" r="63.6093" fill="#8D8B89"/>
<circle cx="146.741" cy="183.678" r="51.306" fill="#113450"/>
<path d="M133.188 269.472H160.293L155.893 463H137.963L133.188 269.472Z" fill="#F3601F"/>
<defs>
<linearGradient id="paint0_linear" x1="100.017" y1="356.134" x2="195.186" y2="356.134" gradientUnits="userSpaceOnUse">
<stop stop-color="#938B88"/>
<stop offset="1" stop-color="#5C574A"/>
</linearGradient>
</defs>
</svg>
