<svg width="210" height="293" viewBox="0 0 210 293" fill="none" xmlns="http://www.w3.org/2000/svg">
<path d="M0 223.082L39.4203 183.064L48.9856 228.592C48.9856 228.592 38.8406 235.261 32.4638 255.271C26.087 275.28 26.9566 292.969 26.9566 292.969H19.7101C19.7101 292.969 16.8114 287.459 8.69541 262.81C0.579463 238.161 0 223.082 0 223.082Z" fill="#86CDF0"/>
<path d="M52.788 234.681H108.73L106.411 245.991H54.5272L52.788 234.681Z" fill="#86CDF0"/>
<path d="M160 223.082L120.58 183.064L111.014 228.592C111.014 228.592 121.159 235.261 127.536 255.271C133.913 275.28 133.043 292.969 133.043 292.969H140.29C140.29 292.969 143.189 287.459 151.305 262.81C159.421 238.161 160 223.082 160 223.082Z" fill="#86CDF0"/>
<path d="M76.8221 40.9691L80.3222 40.9691V239.321H51.1576C51.1576 239.321 30.2911 214.123 36.577 138.985C42.863 63.8474 76.8221 40.9691 76.8221 40.9691Z" fill="#B5E5FB"/>
<path d="M83.277 40.9691L79.7769 40.9691V239.321H108.942C108.942 239.321 129.808 214.123 123.522 138.985C117.236 63.8474 83.277 40.9691 83.277 40.9691Z" fill="#B5E5FB"/>
<mask id="mask0" mask-type="alpha" maskUnits="userSpaceOnUse" x="35" y="40" width="46" height="200">
<path d="M76.8221 40.9691L80.3222 40.9691V239.321H51.1576C51.1576 239.321 30.2911 214.123 36.577 138.985C42.863 63.8474 76.8221 40.9691 76.8221 40.9691Z" fill="white"/>
</mask>
<g mask="url(#mask0)">
<rect x="16.8459" y="30.5295" width="120.87" height="62.3475" fill="#85CCF0"/>
</g>
<mask id="mask1" mask-type="alpha" maskUnits="userSpaceOnUse" x="79" y="40" width="46" height="200">
<path d="M83.277 40.9691L79.7769 40.9691V239.321H108.942C108.942 239.321 129.808 214.123 123.522 138.985C117.236 63.8474 83.277 40.9691 83.277 40.9691Z" fill="white"/>
</mask>
<g mask="url(#mask1)">
<rect width="120.87" height="62.3475" transform="matrix(-1 0 0 1 143.253 30.5295)" fill="#85CCF0"/>
</g>
<ellipse cx="80" cy="140.618" rx="27.971" ry="27.9839" fill="#85CCF0"/>
<path d="M72.6113 187.413H87.3887L84.9895 292.969H75.2146L72.6113 187.413Z" fill="#86CDF0"/>
<g clip-path="url(#clip0)">
<path d="M180 145L164 145L164 129L180 129L180 145ZM166.5 143.5L177.5 143.5L172 138L166.5 143.5ZM172 136L177.5 130.5L166.5 130.5L172 136ZM178.5 131.5L173 137L178.5 142.5L178.5 131.5ZM171 137L165.5 131.5L165.5 142.5L171 137Z" fill="#B5E5FB"/>
</g>
<g clip-path="url(#clip1)">
<path d="M165 145L149 145L149 129L165 129L165 145ZM151.5 143.5L162.5 143.5L157 138L151.5 143.5ZM157 136L162.5 130.5L151.5 130.5L157 136ZM163.5 131.5L158 137L163.5 142.5L163.5 131.5ZM156 137L150.5 131.5L150.5 142.5L156 137Z" fill="#B5E5FB"/>
</g>
<g clip-path="url(#clip2)">
<path d="M150 145L134 145L134 129L150 129L150 145ZM136.5 143.5L147.5 143.5L142 138L136.5 143.5ZM142 136L147.5 130.5L136.5 130.5L142 136ZM148.5 131.5L143 137L148.5 142.5L148.5 131.5ZM141 137L135.5 131.5L135.5 142.5L141 137Z" fill="#B5E5FB"/>
</g>
<g clip-path="url(#clip3)">
<path d="M135 145L119 145L119 129L135 129L135 145ZM119 145L133.5 145L119 130.5L119 145ZM133.5 130.5L121.5 130.5L133.5 142.5L133.5 130.5Z" fill="#B5E5FB"/>
</g>
<g clip-path="url(#clip4)">
<path d="M164 74L148 74L148 58L164 58L164 74ZM150.5 72.5L161.5 72.5L156 67L150.5 72.5ZM156 65L161.5 59.5L150.5 59.5L156 65ZM162.5 60.5L157 66L162.5 71.5L162.5 60.5ZM155 66L149.5 60.5L149.5 71.5L155 66Z" fill="#B5E5FB"/>
</g>
<g clip-path="url(#clip5)">
<path d="M149 74L133 74L133 58L149 58L149 74ZM135.5 72.5L146.5 72.5L141 67L135.5 72.5ZM141 65L146.5 59.5L135.5 59.5L141 65ZM147.5 60.5L142 66L147.5 71.5L147.5 60.5ZM140 66L134.5 60.5L134.5 71.5L140 66Z" fill="#B5E5FB"/>
</g>
<g clip-path="url(#clip6)">
<path d="M134 74L118 74L118 58L134 58L134 74ZM120.5 72.5L131.5 72.5L126 67L120.5 72.5ZM126 65L131.5 59.5L120.5 59.5L126 65ZM132.5 60.5L127 66L132.5 71.5L132.5 60.5ZM125 66L119.5 60.5L119.5 71.5L125 66Z" fill="#B5E5FB"/>
</g>
<g clip-path="url(#clip7)">
<path d="M119 74L103 74L103 58L119 58L119 74ZM103 74L117.5 74L103 59.5L103 74ZM117.5 59.5L105.5 59.5L117.5 71.5L117.5 59.5Z" fill="#B5E5FB"/>
</g>
<g clip-path="url(#clip8)">
<path d="M179 74L163 74L163 58L179 58L179 74ZM165.5 72.5L176.5 72.5L171 67L165.5 72.5ZM171 65L176.5 59.5L165.5 59.5L171 65ZM177.5 60.5L172 66L177.5 71.5L177.5 60.5ZM170 66L164.5 60.5L164.5 71.5L170 66Z" fill="#B5E5FB"/>
</g>
<g clip-path="url(#clip9)">
<path d="M210 292.969V260.969H178V292.969H210ZM207 265.969V287.969L196 276.969L207 265.969ZM192 276.969L181 287.969V265.969L192 276.969ZM183 289.969L194 278.969L205 289.969H183ZM194 274.969L183 263.969H205L194 274.969Z" fill="#B5E5FB"/>
</g>
<path d="M210 264V232H178V264H210ZM207 237V259L196 248L207 237ZM192 248L181 259V237L192 248ZM183 261L194 250L205 261H183ZM194 246L183 235H205L194 246Z" fill="#B5E5FB"/>
<path d="M210 235V203H178V235H210ZM207 208V230L196 219L207 208ZM192 219L181 230V208L192 219ZM183 232L194 221L205 232H183ZM194 217L183 206H205L194 217Z" fill="#B5E5FB"/>
<path d="M210 206V174H178V206H210ZM207 179V201L196 190L207 179ZM192 190L181 201V179L192 190ZM183 203L194 192L205 203H183ZM194 188L183 177H205L194 188Z" fill="#B5E5FB"/>
<path d="M210 177V145H178V177H210ZM207 150V172L196 161L207 150ZM192 161L181 172V150L192 161ZM183 174L194 163L205 174H183ZM194 159L183 148H205L194 159Z" fill="#B5E5FB"/>
<path d="M210 148V116H178V148H210ZM207 121V143L196 132L207 121ZM192 132L181 143V121L192 132ZM183 145L194 134L205 145H183ZM194 130L183 119H205L194 130Z" fill="#B5E5FB"/>
<path d="M210 119V87H178V119H210ZM207 92V114L196 103L207 92ZM192 103L181 114V92L192 103ZM183 116L194 105L205 116H183ZM194 101L183 90H205L194 101Z" fill="#B5E5FB"/>
<path d="M210 90V58H178V90H210ZM207 63V85L196 74L207 63ZM192 74L181 85V63L192 74ZM183 87L194 76L205 87H183ZM194 72L183 61H205L194 72Z" fill="#B5E5FB"/>
<path d="M210 61V29H178V61H210ZM207 34V56L196 45L207 34ZM192 45L181 56V34L192 45ZM183 58L194 47L205 58H183ZM194 43L183 32H205L194 43Z" fill="#B5E5FB"/>
<path d="M210 32V0H178V32H210ZM210 0V29L181 0H210ZM181 29V5L205 29H181Z" fill="#B5E5FB"/>
<defs>
<clipPath id="clip0">
<path d="M164 129L164 145L180 145L180 129L164 129Z" fill="white"/>
</clipPath>
<clipPath id="clip1">
<path d="M149 129L149 145L165 145L165 129L149 129Z" fill="white"/>
</clipPath>
<clipPath id="clip2">
<path d="M134 129L134 145L150 145L150 129L134 129Z" fill="white"/>
</clipPath>
<clipPath id="clip3">
<rect width="16" height="16" transform="matrix(-4.37114e-08 1 1 4.37114e-08 119 129)" fill="white"/>
</clipPath>
<clipPath id="clip4">
<path d="M148 58L148 74L164 74L164 58L148 58Z" fill="white"/>
</clipPath>
<clipPath id="clip5">
<path d="M133 58L133 74L149 74L149 58L133 58Z" fill="white"/>
</clipPath>
<clipPath id="clip6">
<path d="M118 58L118 74L134 74L134 58L118 58Z" fill="white"/>
</clipPath>
<clipPath id="clip7">
<rect width="16" height="16" transform="matrix(-4.37114e-08 1 1 4.37114e-08 103 58)" fill="white"/>
</clipPath>
<clipPath id="clip8">
<path d="M163 58L163 74L179 74L179 58L163 58Z" fill="white"/>
</clipPath>
<clipPath id="clip9">
<path d="M178 260.969H210V292.969H178V260.969Z" fill="white"/>
</clipPath>
</defs>
</svg>
