<svg width="237" height="203" viewBox="0 0 237 203" fill="none" xmlns="http://www.w3.org/2000/svg">
<path d="M8.09835 201.985C4.25319 201.998 1.12588 198.891 1.1133 195.046L0.500038 7.48163C0.487466 3.63647 3.5944 0.509155 7.43956 0.496583L95.1643 0.209755C99.0095 0.197183 102.137 3.30411 102.149 7.14928L102.763 194.713C102.775 198.558 99.6683 201.686 95.8231 201.698L8.09835 201.985Z" fill="#91A4AD"/>
<path d="M93.4915 25.2515L94.6436 176.469L9.56654 177.117L8.41435 25.8997L93.4915 25.2515Z" fill="white"/>
<path d="M35.0104 108.103C35.0104 104.258 38.1276 101.141 41.9728 101.141H229.538C233.383 101.141 236.5 104.258 236.5 108.103V195.828C236.5 199.673 233.383 202.791 229.538 202.791H41.9728C38.1276 202.791 35.0104 199.673 35.0104 195.828V108.103Z" fill="#2D2B28"/>
<rect x="62.1634" y="108.242" width="151.222" height="85.0796" fill="white"/>
<path d="M186.152 71.1847L176.249 89.6892L165.173 71.7849L186.152 71.1847Z" fill="black"/>
<path d="M122.88 26.8979C165.231 25.2929 175.714 38.9807 175.714 72.7596" stroke="black" stroke-width="8"/>
</svg>
